<?xml version="1.0" standalone="no"?>
<!DOCTYPE svg PUBLIC "-//W3C//DTD SVG 20010904//EN"
 "http://www.w3.org/TR/2001/REC-SVG-20010904/DTD/svg10.dtd">
<svg version="1.0" xmlns="http://www.w3.org/2000/svg"
 width="700.000000pt" height="700.000000pt" viewBox="0 0 700.000000 700.000000"
 preserveAspectRatio="xMidYMid meet">
<metadata>
Created by potrace 1.11, written by Peter Selinger 2001-2013
</metadata>
<g transform="translate(0.000000,700.000000) scale(0.100000,-0.100000)"
fill="#000000" stroke="none">
<path d="M5270 6984 c-91 -33 -156 -107 -175 -202 -26 -129 33 -245 154 -304
46 -23 50 -23 438 -23 216 0 393 0 393 0 0 0 -459 -459 -1020 -1020 -757 -757
-1032 -1026 -1067 -1044 -66 -33 -160 -35 -223 -4 -29 15 -120 97 -255 231
-265 262 -338 314 -522 368 -206 60 -420 30 -623 -89 -75 -44 -126 -91 -441
-406 -332 -333 -357 -360 -378 -416 -52 -138 15 -292 152 -350 73 -30 180 -21
246 21 14 9 173 164 353 344 196 197 343 336 370 350 60 33 155 34 218 3 29
-15 121 -97 260 -235 218 -215 279 -265 392 -318 274 -128 610 -85 848 109 25
20 498 489 1052 1044 555 554 1008 1004 1009 1000 0 -5 1 -172 2 -373 l3 -365
26 -50 c30 -56 65 -92 123 -126 57 -33 182 -34 240 -2 57 32 91 65 122 120
l28 48 0 490 c0 560 0 563 -58 705 -76 187 -210 331 -394 424 -157 79 -209 85
-758 85 -402 0 -476 -2 -515 -15z"/>
<path d="M2890 3550 c-101 -18 -192 -104 -216 -205 -6 -24 -9 -643 -8 -1585 1
-1541 1 -1545 22 -1592 25 -56 83 -116 137 -143 56 -28 175 -27 230 2 72 38
121 94 145 167 10 30 12 375 12 1590 l0 1553 -22 51 c-49 113 -179 183 -300
162z"/>
<path d="M5661 3249 c-47 -25 -73 -47 -97 -82 -44 -63 -54 -103 -54 -209 l0
-87 -277 -3 c-268 -3 -280 -4 -323 -26 -162 -84 -201 -301 -77 -430 52 -55
119 -83 201 -86 39 -1 76 -5 82 -9 12 -7 14 -1340 2 -1352 -3 -4 -40 -8 -81
-10 -121 -5 -201 -54 -252 -155 -30 -59 -30 -174 -1 -233 35 -70 120 -139 188
-151 13 -3 139 -5 281 -5 l257 -1 0 -90 c0 -65 5 -104 20 -144 50 -132 194
-203 332 -162 67 19 125 68 162 136 25 46 29 64 31 152 2 55 5 101 7 103 1 1
71 5 153 8 163 6 228 19 334 68 262 121 439 381 446 654 4 153 -12 233 -73
366 -42 90 -165 234 -239 280 -35 22 -39 29 -24 45 28 31 64 194 64 299 2 367
-276 687 -642 738 -23 4 -24 6 -26 108 -3 115 -16 156 -66 214 -52 59 -108 86
-191 92 -68 5 -77 3 -137 -28z m406 -947 c157 -81 139 -303 -31 -365 -15 -6
-233 -10 -347 -7 -14 0 -15 23 -14 198 1 108 3 197 4 197 0 1 79 0 174 0 155
-1 176 -4 214 -23z m253 -943 c84 -38 130 -103 130 -184 0 -85 -47 -157 -127
-195 -46 -22 -58 -22 -333 -22 -157 0 -292 1 -301 1 -13 1 -15 28 -15 211 l0
210 301 0 c280 0 303 -2 345 -21z"/>
<path d="M3968 3209 c-105 -16 -195 -94 -223 -194 -22 -78 -20 -2752 2 -2827
22 -75 100 -151 178 -173 106 -31 208 -3 282 78 78 85 74 -18 71 1538 l-3
1384 -30 54 c-56 101 -166 157 -277 140z"/>
<path d="M730 3203 c-66 -23 -121 -71 -388 -339 -164 -166 -301 -312 -312
-334 -30 -58 -35 -136 -15 -205 13 -45 28 -69 68 -109 60 -60 123 -85 204 -81
102 5 133 29 452 351 318 321 332 340 334 443 2 130 -63 225 -183 268 -35 13
-131 16 -160 6z"/>
<path d="M1796 2943 c-74 -20 -161 -106 -184 -181 -9 -27 -12 -385 -12 -1288
l0 -1252 22 -51 c44 -108 156 -178 269 -168 111 9 203 79 237 180 18 53 18
112 18 1309 l-1 1253 -23 46 c-49 100 -135 156 -240 157 -37 0 -76 -2 -86 -5z"/>
<path d="M709 1710 c-73 -22 -150 -99 -173 -174 -15 -47 -16 -122 -14 -697 3
-643 3 -644 25 -685 108 -202 395 -200 494 3 l23 48 1 640 c1 507 -2 650 -12
686 -18 62 -84 136 -148 165 -52 25 -141 31 -196 14z"/>
</g>
</svg>
